<?xml version="1.0" encoding="UTF-8"?>
<svg width="776px" height="299px" viewBox="0 0 776 299" version="1.1" xmlns="http://www.w3.org/2000/svg" xmlns:xlink="http://www.w3.org/1999/xlink">
    <!-- Generator: Sketch 45.2 (43514) - http://www.bohemiancoding.com/sketch -->
    <title>404</title>
    <desc>Created with Sketch.</desc>
    <defs></defs>
    <g id="Error-Pages" stroke="none" stroke-width="1" fill="none" fill-rule="evenodd">
        <g id="404" transform="translate(-403.000000, -396.000000)">
            <g transform="translate(388.000000, 396.000000)">
                <text id="4" font-family=".SFNSDisplay, .SF NS Display" font-size="400" font-weight="normal" line-spacing="80" fill="#3EBCA8">
                    <tspan x="0" y="601">4</tspan>
                </text>
                <text id="4-" font-family=".SFNSDisplay, .SF NS Display" font-size="400" font-weight="normal" line-spacing="80" fill="#3EBCA8">
                    <tspan x="560" y="601">4</tspan>
                </text>
                <path d="M469.291287,137.329794 C455.264878,137.329794 443.884183,125.993421 443.884183,111.983724 C443.884183,97.990563 455.264878,86.6372076 469.291287,86.6372076 C483.318593,86.6372076 494.698391,97.990563 494.698391,111.983724 C494.698391,125.993421 483.318593,137.329794 469.291287,137.329794 M325.317101,111.983724 C325.317101,97.990563 336.697795,86.6372076 350.724205,86.6372076 C364.75151,86.6372076 376.131309,97.990563 376.131309,111.983724 C376.131309,125.993421 364.75151,137.329794 350.724205,137.329794 C336.697795,137.329794 325.317101,125.993421 325.317101,111.983724 M409.999683,0 C282.963266,0 283,118.282256 283,118.282256 L283,298.737372 L314.773215,256.538463 L346.49133,298.737372 L378.213028,256.538463 L409.936519,298.737372 L441.660457,256.538463 L473.385291,298.737372 L505.134764,256.538463 L536.999365,298.737372 L536.999365,118.282256 C536.999365,118.282256 537.035651,0 409.999683,0" id="Ghost" fill="#40BCA8"></path>
            </g>
        </g>
    </g>
</svg>